<?xml version="1.0" encoding="UTF-8" standalone="no"?>
<!-- Created with Inkscape (http://www.inkscape.org/) -->

<svg
   width="150mm"
   height="140mm"
   viewBox="0 0 150 140"
   version="1.1"
   id="svg1"
   inkscape:version="1.3.2 (091e20ef0f, 2023-11-25)"
   sodipodi:docname="csf_sign.svg"
   xmlns:inkscape="http://www.inkscape.org/namespaces/inkscape"
   xmlns:sodipodi="http://sodipodi.sourceforge.net/DTD/sodipodi-0.dtd"
   xmlns="http://www.w3.org/2000/svg"
   xmlns:svg="http://www.w3.org/2000/svg">
  <sodipodi:namedview
     id="namedview1"
     pagecolor="#505050"
     bordercolor="#ffffff"
     borderopacity="1"
     inkscape:showpageshadow="0"
     inkscape:pageopacity="0"
     inkscape:pagecheckerboard="1"
     inkscape:deskcolor="#505050"
     inkscape:document-units="mm"
     inkscape:zoom="0.6122902"
     inkscape:cx="195.9855"
     inkscape:cy="514.46193"
     inkscape:window-width="1280"
     inkscape:window-height="692"
     inkscape:window-x="0"
     inkscape:window-y="0"
     inkscape:window-maximized="1"
     inkscape:current-layer="layer1" />
  <defs
     id="defs1">
    <inkscape:path-effect
       effect="bspline"
       id="path-effect34"
       is_visible="true"
       lpeversion="1.3"
       weight="33.333333"
       steps="2"
       helper_size="0"
       apply_no_weight="true"
       apply_with_weight="true"
       only_selected="false"
       uniform="false" />
    <inkscape:path-effect
       effect="bspline"
       id="path-effect28"
       is_visible="true"
       lpeversion="1.3"
       weight="33.333333"
       steps="2"
       helper_size="0"
       apply_no_weight="true"
       apply_with_weight="true"
       only_selected="false"
       uniform="false" />
    <inkscape:path-effect
       effect="bspline"
       id="path-effect34-7"
       is_visible="true"
       lpeversion="1.3"
       weight="33.333333"
       steps="2"
       helper_size="0"
       apply_no_weight="true"
       apply_with_weight="true"
       only_selected="false"
       uniform="false" />
  </defs>
  <g
     inkscape:label="Layer 1"
     inkscape:groupmode="layer"
     id="layer1">
    <path
       id="path3"
       style="fill:#ffffff;fill-opacity:1;stroke-width:0.180654;stroke-linejoin:bevel;paint-order:fill markers stroke"
       d="M 75.000073,0 A 75,35.314342 0 0 0 0,35.314124 75,35.314342 0 0 0 73.558818,70.584322 c -6.012716,0.0014 -10.920497,0.03055 -10.920264,0.06718 2.38e-4,0.03754 0.812769,1.859782 1.805574,4.049366 5.649211,12.459071 9.033882,32.650592 9.287289,55.401782 0.09122,8.18974 0.09989,8.13121 0.589111,-3.90829 0.548597,-13.50083 1.813325,-25.09603 3.693315,-33.86046 1.221217,-5.693251 4.725072,-16.52822 6.378939,-19.726445 0.471526,-0.911832 0.856555,-1.740512 0.855761,-1.841231 -6.1e-4,-0.07981 -3.571338,-0.135795 -7.99176,-0.160714 A 75,35.314342 0 0 0 150.00015,35.314124 75,35.314342 0 0 0 75.000073,0 Z m -48.906575,25.069788 4.99401,5.139738 8.539531,8.4677 6.30039,7.857401 4.925281,6.236312 3.446818,4.783171 -12.003918,-2.859774 -11.178646,-5.672005 -3.308325,-2.523877 -4.200778,-5.007447 -2.184362,-5.741251 1.055232,-5.125785 z m 95.510452,0 3.61476,5.554699 1.05524,5.125269 -2.18437,5.741768 -4.20026,5.007447 -3.30884,2.52336 -11.17864,5.672522 -12.003923,2.859257 3.446818,-4.782654 4.925795,-6.236312 6.30039,-7.857401 8.53953,-8.467701 z" />
  </g>
</svg>
