<svg xmlns="http://www.w3.org/2000/svg" width="207" height="186" fill="none" viewBox="0 0 207 186">
  <g clip-path="url(#a)">
    <path fill="#0E7FDD" d="M47.863 148.098c-.797-12.753-1.19-16.63-2.201-21.692-1.739-8.711-4.82-13.084-10.572-15.006-2.037-.681-4.945-1.163-7.84-1.301-1.348-.065-1.73-.231-.529-.231 1.115 0 3.923-.301 5.487-.588 1.967-.36 3.384-.8 4.797-1.487 6.883-3.35 9.408-10.703 10.676-31.101l.23-3.692.171 2.953c.852 14.706 2.491 22.84 5.504 27.304.956 1.418 1.624 2.127 2.945 3.128 1.928 1.461 4.092 2.349 7.041 2.89 1.427.261 4.245.579 5.356.604.273.006-.257.07-1.176.143-.92.073-2.306.226-3.082.34-6.96 1.025-10.812 4.085-13.037 10.357-1.795 5.059-2.772 11.582-3.453 23.063-.28 4.723-.286 4.806-.317 4.316Z"/>
    <path fill="url(#b)" d="M48.182 75.186h-.611v71.12h.61v-71.12Z"/>
  </g>
  <g clip-path="url(#c)">
    <path fill="#0E7FDD" d="M101.032 131.144c-1.168-18.704-1.745-24.391-3.225-31.815-2.547-12.776-7.06-19.19-15.489-22.009-2.984-.998-7.245-1.706-11.486-1.909-1.975-.094-2.534-.338-.775-.338 1.633 0 5.747-.441 8.038-.862 2.882-.529 4.958-1.174 7.029-2.182 10.085-4.912 13.783-15.697 15.642-45.615l.336-5.414.251 4.331c1.248 21.569 3.65 33.498 8.063 40.047 1.401 2.079 2.38 3.119 4.315 4.587 2.825 2.142 5.996 3.445 10.317 4.238 2.09.383 6.219.85 7.847.885.399.01-.377.104-1.724.211a82.48 82.48 0 0 0-4.515.499c-10.197 1.503-15.84 5.99-19.101 15.19-2.63 7.42-4.06 16.986-5.058 33.825-.411 6.927-.42 7.05-.465 6.331Z"/>
    <path fill="url(#d)" d="M101.499 24.206h-.895v104.309h.895V24.206Z"/>
  </g>
  <g clip-path="url(#e)">
    <path fill="#0E7FDD" d="M149.032 186.144c-1.169-18.704-1.745-24.391-3.225-31.815-2.547-12.776-7.061-19.19-15.488-22.009-2.985-.998-7.246-1.706-11.487-1.909-1.975-.094-2.534-.339-.775-.339 1.633 0 5.747-.44 8.038-.861 2.882-.529 4.958-1.173 7.029-2.182 10.084-4.912 13.783-15.697 15.642-45.615l.336-5.414.251 4.332c1.248 21.568 3.65 33.497 8.063 40.046 1.401 2.079 2.38 3.119 4.315 4.587 2.825 2.142 5.996 3.445 10.317 4.238 2.09.383 6.219.849 7.847.886.399.008-.377.103-1.724.21a82.975 82.975 0 0 0-4.515.499c-10.197 1.503-15.84 5.991-19.101 15.189-2.63 7.421-4.06 16.987-5.058 33.826-.411 6.927-.42 7.05-.465 6.331Z"/>
    <path fill="url(#f)" d="M149.499 79.206h-.895v104.309h.895V79.206Z"/>
  </g>
  <g clip-path="url(#g)">
    <path fill="#0E7FDD" d="M135.304 63.083c-.668-10.713-.997-13.97-1.843-18.222-1.455-7.317-4.035-10.99-8.85-12.605-1.706-.572-4.141-.977-6.564-1.093-1.129-.054-1.448-.194-.443-.194.933 0 3.284-.253 4.593-.494 1.647-.303 2.833-.672 4.017-1.25 5.762-2.813 7.876-8.99 8.938-26.124L135.344 0l.143 2.48c.713 12.354 2.086 19.186 4.608 22.936.801 1.19 1.36 1.787 2.466 2.627 1.614 1.227 3.426 1.974 5.895 2.428 1.194.22 3.554.486 4.484.507.228.005-.215.06-.985.12-.77.062-1.931.19-2.58.286-5.827.861-9.052 3.431-10.915 8.7-1.503 4.25-2.32 9.729-2.89 19.373-.235 3.967-.24 4.037-.266 3.626Z"/>
    <path fill="url(#h)" d="M135.571 1.836h-.512v59.74h.512V1.837Z"/>
  </g>
  <g clip-path="url(#i)">
    <path fill="#0E7FDD" d="M13.728 92.063c-.5-8.162-.748-10.643-1.382-13.883-1.092-5.575-3.026-8.374-6.638-9.604-1.28-.436-3.105-.745-4.923-.833-.846-.041-1.086-.148-.332-.148.7 0 2.463-.192 3.445-.376 1.235-.23 2.125-.512 3.012-.952 4.322-2.143 5.907-6.85 6.704-19.904L13.758 44l.108 1.89c.534 9.412 1.564 14.617 3.455 17.475.6.907 1.02 1.36 1.85 2.001 1.21.935 2.57 1.504 4.421 1.85.896.167 2.665.37 3.363.386.171.004-.161.045-.739.092-.577.047-1.448.145-1.935.218-4.37.656-6.788 2.614-8.186 6.628-1.127 3.238-1.74 7.412-2.168 14.76-.176 3.023-.18 3.077-.199 2.763Z"/>
    <path fill="url(#j)" d="M13.928 45.4h-.384v45.516h.384V45.399Z"/>
  </g>
  <g clip-path="url(#k)">
    <path fill="#0E7FDD" d="M193.728 109.063c-.501-8.162-.748-10.643-1.382-13.883-1.092-5.575-3.026-8.374-6.638-9.604-1.279-.436-3.105-.745-4.923-.833-.846-.041-1.086-.148-.332-.148.7 0 2.463-.192 3.445-.376 1.235-.23 2.125-.512 3.012-.952 4.322-2.143 5.907-6.85 6.704-19.904l.144-2.363.108 1.89c.534 9.412 1.564 14.617 3.455 17.475.601.907 1.02 1.36 1.85 2.001 1.21.935 2.569 1.504 4.421 1.85.896.167 2.665.37 3.363.386.171.004-.161.045-.739.092-.577.047-1.448.145-1.935.218-4.37.656-6.788 2.614-8.186 6.628-1.127 3.238-1.74 7.412-2.168 14.76-.176 3.023-.18 3.077-.199 2.763Z"/>
    <path fill="url(#l)" d="M193.928 62.4h-.384v45.516h.384V62.399Z"/>
  </g>
  <defs>
    <radialGradient id="b" cx="0" cy="0" r="1" gradientTransform="matrix(.30556 0 0 35.5598 47.876 110.747)" gradientUnits="userSpaceOnUse">
      <stop stop-color="#F2D6DD"/>
      <stop offset="1" stop-color="#F2D6DD" stop-opacity="0"/>
    </radialGradient>
    <radialGradient id="d" cx="0" cy="0" r="1" gradientTransform="matrix(.44768 0 0 52.1543 101.051 76.362)" gradientUnits="userSpaceOnUse">
      <stop stop-color="#F2D6DD"/>
      <stop offset="1" stop-color="#F2D6DD" stop-opacity="0"/>
    </radialGradient>
    <radialGradient id="f" cx="0" cy="0" r="1" gradientTransform="matrix(.44768 0 0 52.1543 149.051 131.362)" gradientUnits="userSpaceOnUse">
      <stop stop-color="#F2D6DD"/>
      <stop offset="1" stop-color="#F2D6DD" stop-opacity="0"/>
    </radialGradient>
    <radialGradient id="h" cx="0" cy="0" r="1" gradientTransform="matrix(.25582 0 0 29.8702 135.315 31.707)" gradientUnits="userSpaceOnUse">
      <stop stop-color="#F2D6DD"/>
      <stop offset="1" stop-color="#F2D6DD" stop-opacity="0"/>
    </radialGradient>
    <radialGradient id="j" cx="0" cy="0" r="1" gradientTransform="matrix(.19186 0 0 22.7582 13.736 68.158)" gradientUnits="userSpaceOnUse">
      <stop stop-color="#F2D6DD"/>
      <stop offset="1" stop-color="#F2D6DD" stop-opacity="0"/>
    </radialGradient>
    <radialGradient id="l" cx="0" cy="0" r="1" gradientTransform="matrix(.19186 0 0 22.7582 193.736 85.158)" gradientUnits="userSpaceOnUse">
      <stop stop-color="#F2D6DD"/>
      <stop offset="1" stop-color="#F2D6DD" stop-opacity="0"/>
    </radialGradient>
    <clipPath id="a">
      <path fill="#fff" d="M26 73h43v75H26z"/>
    </clipPath>
    <clipPath id="c">
      <path fill="#fff" d="M69 21h63v110H69z"/>
    </clipPath>
    <clipPath id="e">
      <path fill="#fff" d="M117 76h63v110h-63z"/>
    </clipPath>
    <clipPath id="g">
      <path fill="#fff" d="M117 0h36v63h-36z"/>
    </clipPath>
    <clipPath id="i">
      <path fill="#fff" d="M0 44h27v48H0z"/>
    </clipPath>
    <clipPath id="k">
      <path fill="#fff" d="M180 61h27v48h-27z"/>
    </clipPath>
  </defs>
</svg>
