<svg xmlns="http://www.w3.org/2000/svg" width="370" height="353" fill="none" viewBox="0 0 370 353">
  <path stroke="#1E1E24" stroke-linecap="round" stroke-width="3" d="M62.396 344c-2.155-.808-1.233-11.052-1-13.222 2.077-19.284 41.99-6.282 51.111-1.334 21.082 11.44 45.81 21.556 70.222 21.556 18.87 0 38.149-7.579 53.667-17.889 26.645-17.702 37.594-43.968 45.445-73.778 5.872-22.299 10.544-44.277 11.777-67.333 1.741-32.534 8.376-60.793 28.778-86.778 12.445-15.85 27.363-24.01 46-30.222"/>
  <path stroke="#1E1E24" stroke-linecap="round" stroke-width="4" d="M55.396 333c-2.155-.808-1.233-11.052-1-13.222 2.077-19.284 41.99-6.282 51.111-1.334 21.082 11.44 45.81 21.556 70.222 21.556 18.87 0 38.149-7.579 53.667-17.889 26.645-17.702 37.594-43.968 45.445-73.778 5.872-22.299 10.544-44.277 11.777-67.333 1.741-32.534 8.376-60.793 28.778-86.778 12.445-15.85 27.363-24.01 46-30.222"/>
  <path stroke="#1E1E24" stroke-linecap="round" stroke-width="5" d="M47.396 321c-2.155-.808-1.233-11.052-1-13.222 2.077-19.284 41.99-6.282 51.111-1.334C118.59 317.884 143.317 328 167.73 328c18.87 0 38.149-7.579 53.667-17.889 26.645-17.702 37.594-43.968 45.445-73.778 5.872-22.299 10.544-44.277 11.777-67.333 1.741-32.534 8.376-60.793 28.778-86.778 12.445-15.85 27.363-24.01 46-30.222"/>
  <path stroke="#1E1E24" stroke-linecap="round" stroke-width="6" d="M39.396 311c-2.155-.808-1.233-11.052-1-13.222 2.077-19.284 41.99-6.282 51.111-1.334C110.59 307.884 135.317 318 159.73 318c18.87 0 38.149-7.579 53.667-17.889 26.645-17.702 37.594-43.968 45.445-73.778 5.872-22.299 10.544-44.277 11.777-67.333 1.741-32.534 8.376-60.793 28.778-86.778 12.445-15.85 27.363-24.01 46-30.222"/>
  <path stroke="#1E1E24" stroke-linecap="round" stroke-width="7" d="M31.396 302c-2.155-.808-1.233-11.052-1-13.222 2.077-19.284 41.99-6.282 51.111-1.334C102.59 298.884 127.317 309 151.73 309c18.87 0 38.149-7.579 53.667-17.889 26.645-17.702 37.594-43.968 45.445-73.778 5.872-22.299 10.544-44.277 11.777-67.333 1.741-32.534 8.376-60.793 28.778-86.778 12.445-15.85 27.363-24.01 46-30.222"/>
  <path stroke="#1E1E24" stroke-linecap="round" stroke-width="8" d="M24.396 292c-2.155-.808-1.233-11.052-1-13.222 2.077-19.284 41.99-6.282 51.111-1.334C95.59 288.884 120.317 299 144.73 299c18.87 0 38.149-7.579 53.667-17.889 26.645-17.702 37.594-43.968 45.445-73.778 5.872-22.299 10.544-44.277 11.777-67.333 1.741-32.534 8.376-60.793 28.778-86.778 12.445-15.85 27.363-24.01 46-30.222"/>
  <path stroke="#1E1E24" stroke-linecap="round" stroke-width="9" d="M16.396 283c-2.155-.808-1.234-11.052-1-13.222 2.077-19.284 41.99-6.282 51.111-1.334C87.59 279.884 112.317 290 136.73 290c18.87 0 38.149-7.579 53.667-17.889 26.645-17.702 37.594-43.968 45.445-73.778 5.872-22.299 10.544-44.277 11.777-67.333 1.741-32.534 8.376-60.793 28.778-86.778 12.445-15.85 27.363-24.01 46-30.222"/>
  <path stroke="#1E1E24" stroke-linecap="round" stroke-width="10" d="M6.396 274c-2.155-.808-1.234-11.052-1-13.222 2.077-19.284 41.99-6.282 51.111-1.334C77.59 270.884 102.317 281 126.73 281c18.87 0 38.149-7.579 53.667-17.889 26.645-17.702 37.594-43.968 45.445-73.778 5.872-22.299 10.544-44.277 11.777-67.333 1.741-32.534 8.376-60.793 28.778-86.778 12.445-15.85 27.363-24.01 46-30.222"/>
</svg>
